<mxfile host="app.diagrams.net" modified="2023-08-02T18:56:54.254Z" agent="Mozilla/5.0 (Windows NT 10.0; Win64; x64) AppleWebKit/537.36 (KHTML, like Gecko) Chrome/115.0.0.0 Safari/537.36" etag="qUR8j8Zf_qHxCvyecnNt" version="21.6.6" type="device">
  <diagram name="Страница 1" id="swogKk0WCs6pn5l-P5Cm">
    <mxGraphModel dx="1272" dy="515" grid="1" gridSize="10" guides="1" tooltips="1" connect="1" arrows="1" fold="1" page="1" pageScale="1" pageWidth="827" pageHeight="1169" math="0" shadow="0">
      <root>
        <mxCell id="0" />
        <mxCell id="1" parent="0" />
        <mxCell id="Ui5OVzXR0hS-x_ozsvxd-1" value="начало" style="rounded=1;whiteSpace=wrap;html=1;" parent="1" vertex="1">
          <mxGeometry x="78" y="10" width="120" height="30" as="geometry" />
        </mxCell>
        <mxCell id="ZejblPBedZObE1Ul5SFk-5" style="edgeStyle=orthogonalEdgeStyle;rounded=0;orthogonalLoop=1;jettySize=auto;html=1;exitX=0.5;exitY=1;exitDx=0;exitDy=0;" parent="1" source="Ui5OVzXR0hS-x_ozsvxd-3" edge="1">
          <mxGeometry relative="1" as="geometry">
            <mxPoint x="138" y="120" as="targetPoint" />
          </mxGeometry>
        </mxCell>
        <mxCell id="Ui5OVzXR0hS-x_ozsvxd-3" value="arr, len" style="shape=parallelogram;perimeter=parallelogramPerimeter;whiteSpace=wrap;html=1;fixedSize=1;" parent="1" vertex="1">
          <mxGeometry x="78" y="70" width="120" height="30" as="geometry" />
        </mxCell>
        <mxCell id="ZejblPBedZObE1Ul5SFk-8" style="edgeStyle=orthogonalEdgeStyle;rounded=0;orthogonalLoop=1;jettySize=auto;html=1;exitX=0.5;exitY=1;exitDx=0;exitDy=0;" parent="1" source="Ui5OVzXR0hS-x_ozsvxd-4" edge="1">
          <mxGeometry relative="1" as="geometry">
            <mxPoint x="378" y="140" as="targetPoint" />
          </mxGeometry>
        </mxCell>
        <mxCell id="ZejblPBedZObE1Ul5SFk-12" style="edgeStyle=orthogonalEdgeStyle;rounded=0;orthogonalLoop=1;jettySize=auto;html=1;exitX=1;exitY=0.5;exitDx=0;exitDy=0;" parent="1" source="ZejblPBedZObE1Ul5SFk-29" edge="1">
          <mxGeometry relative="1" as="geometry">
            <mxPoint x="370" y="420" as="targetPoint" />
            <mxPoint x="476" y="172.5" as="sourcePoint" />
            <Array as="points">
              <mxPoint x="438" y="150" />
              <mxPoint x="496" y="150" />
              <mxPoint x="496" y="400" />
              <mxPoint x="370" y="400" />
            </Array>
          </mxGeometry>
        </mxCell>
        <mxCell id="Ui5OVzXR0hS-x_ozsvxd-4" value="i = 0, arr.Length, 1" style="shape=hexagon;perimeter=hexagonPerimeter2;whiteSpace=wrap;html=1;fixedSize=1;" parent="1" vertex="1">
          <mxGeometry x="280" y="80" width="196" height="30" as="geometry" />
        </mxCell>
        <mxCell id="ZejblPBedZObE1Ul5SFk-31" style="edgeStyle=orthogonalEdgeStyle;rounded=0;orthogonalLoop=1;jettySize=auto;html=1;exitX=0.5;exitY=1;exitDx=0;exitDy=0;entryX=0;entryY=0.5;entryDx=0;entryDy=0;" parent="1" source="QJgAuT76hYWnFfY8ISlt-2" target="ZejblPBedZObE1Ul5SFk-29" edge="1">
          <mxGeometry relative="1" as="geometry">
            <Array as="points">
              <mxPoint x="378" y="370" />
              <mxPoint x="260" y="370" />
              <mxPoint x="260" y="155" />
            </Array>
          </mxGeometry>
        </mxCell>
        <mxCell id="QJgAuT76hYWnFfY8ISlt-2" value="count_3 = count_3 + 1" style="rounded=0;whiteSpace=wrap;html=1;" parent="1" vertex="1">
          <mxGeometry x="313" y="280" width="130" height="30" as="geometry" />
        </mxCell>
        <mxCell id="ZejblPBedZObE1Ul5SFk-9" style="edgeStyle=orthogonalEdgeStyle;rounded=0;orthogonalLoop=1;jettySize=auto;html=1;exitX=0.5;exitY=1;exitDx=0;exitDy=0;" parent="1" source="QJgAuT76hYWnFfY8ISlt-3" edge="1">
          <mxGeometry relative="1" as="geometry">
            <mxPoint x="378" y="280" as="targetPoint" />
          </mxGeometry>
        </mxCell>
        <mxCell id="ZejblPBedZObE1Ul5SFk-24" value="Yes" style="edgeLabel;html=1;align=center;verticalAlign=middle;resizable=0;points=[];" parent="ZejblPBedZObE1Ul5SFk-9" vertex="1" connectable="0">
          <mxGeometry x="-0.2065" y="-1" relative="1" as="geometry">
            <mxPoint as="offset" />
          </mxGeometry>
        </mxCell>
        <mxCell id="ZejblPBedZObE1Ul5SFk-11" style="edgeStyle=orthogonalEdgeStyle;rounded=0;orthogonalLoop=1;jettySize=auto;html=1;exitX=1;exitY=0.5;exitDx=0;exitDy=0;" parent="1" source="QJgAuT76hYWnFfY8ISlt-3" edge="1">
          <mxGeometry relative="1" as="geometry">
            <mxPoint x="378" y="350" as="targetPoint" />
            <Array as="points">
              <mxPoint x="483" y="225" />
              <mxPoint x="483" y="340" />
              <mxPoint x="378" y="340" />
            </Array>
          </mxGeometry>
        </mxCell>
        <mxCell id="ZejblPBedZObE1Ul5SFk-25" value="No" style="edgeLabel;html=1;align=center;verticalAlign=middle;resizable=0;points=[];" parent="ZejblPBedZObE1Ul5SFk-11" vertex="1" connectable="0">
          <mxGeometry x="-0.5051" y="-1" relative="1" as="geometry">
            <mxPoint as="offset" />
          </mxGeometry>
        </mxCell>
        <mxCell id="QJgAuT76hYWnFfY8ISlt-3" value="k &amp;lt; 4" style="rhombus;whiteSpace=wrap;html=1;" parent="1" vertex="1">
          <mxGeometry x="293" y="200" width="170" height="50" as="geometry" />
        </mxCell>
        <mxCell id="ZejblPBedZObE1Ul5SFk-7" style="edgeStyle=orthogonalEdgeStyle;rounded=0;orthogonalLoop=1;jettySize=auto;html=1;exitX=0.5;exitY=1;exitDx=0;exitDy=0;" parent="1" source="QJgAuT76hYWnFfY8ISlt-4" edge="1">
          <mxGeometry relative="1" as="geometry">
            <mxPoint x="138" y="180" as="targetPoint" />
          </mxGeometry>
        </mxCell>
        <mxCell id="QJgAuT76hYWnFfY8ISlt-4" value="count_3 = 0" style="rounded=0;whiteSpace=wrap;html=1;" parent="1" vertex="1">
          <mxGeometry x="88" y="120" width="100" height="30" as="geometry" />
        </mxCell>
        <mxCell id="ZejblPBedZObE1Ul5SFk-1" value="" style="endArrow=classic;html=1;rounded=0;exitX=0.5;exitY=1;exitDx=0;exitDy=0;entryX=0.5;entryY=0;entryDx=0;entryDy=0;" parent="1" source="Ui5OVzXR0hS-x_ozsvxd-1" target="Ui5OVzXR0hS-x_ozsvxd-3" edge="1">
          <mxGeometry width="50" height="50" relative="1" as="geometry">
            <mxPoint x="174" y="290" as="sourcePoint" />
            <mxPoint x="224" y="240" as="targetPoint" />
          </mxGeometry>
        </mxCell>
        <mxCell id="ZejblPBedZObE1Ul5SFk-39" style="edgeStyle=orthogonalEdgeStyle;rounded=0;orthogonalLoop=1;jettySize=auto;html=1;exitX=0.5;exitY=1;exitDx=0;exitDy=0;entryX=0.5;entryY=0;entryDx=0;entryDy=0;" parent="1" source="ZejblPBedZObE1Ul5SFk-13" target="ZejblPBedZObE1Ul5SFk-28" edge="1">
          <mxGeometry relative="1" as="geometry" />
        </mxCell>
        <mxCell id="ZejblPBedZObE1Ul5SFk-46" style="edgeStyle=orthogonalEdgeStyle;rounded=0;orthogonalLoop=1;jettySize=auto;html=1;exitX=1;exitY=0.5;exitDx=0;exitDy=0;entryX=0.5;entryY=0;entryDx=0;entryDy=0;" parent="1" source="ZejblPBedZObE1Ul5SFk-13" edge="1" target="ZejblPBedZObE1Ul5SFk-37">
          <mxGeometry relative="1" as="geometry">
            <mxPoint x="670" y="390" as="targetPoint" />
            <Array as="points">
              <mxPoint x="788" y="155" />
              <mxPoint x="788" y="370" />
              <mxPoint x="671" y="370" />
            </Array>
          </mxGeometry>
        </mxCell>
        <mxCell id="ZejblPBedZObE1Ul5SFk-13" value="i = 0, arr.Length, 1" style="shape=hexagon;perimeter=hexagonPerimeter2;whiteSpace=wrap;html=1;fixedSize=1;" parent="1" vertex="1">
          <mxGeometry x="572" y="140" width="196" height="30" as="geometry" />
        </mxCell>
        <mxCell id="ZejblPBedZObE1Ul5SFk-16" style="edgeStyle=orthogonalEdgeStyle;rounded=0;orthogonalLoop=1;jettySize=auto;html=1;exitX=0.5;exitY=1;exitDx=0;exitDy=0;entryX=0.5;entryY=0;entryDx=0;entryDy=0;" parent="1" source="ZejblPBedZObE1Ul5SFk-14" target="ZejblPBedZObE1Ul5SFk-15" edge="1">
          <mxGeometry relative="1" as="geometry" />
        </mxCell>
        <mxCell id="ZejblPBedZObE1Ul5SFk-14" value="Count_3" style="shape=process;whiteSpace=wrap;html=1;backgroundOutline=1;" parent="1" vertex="1">
          <mxGeometry x="78" y="180" width="120" height="40" as="geometry" />
        </mxCell>
        <mxCell id="ZejblPBedZObE1Ul5SFk-19" style="edgeStyle=orthogonalEdgeStyle;rounded=0;orthogonalLoop=1;jettySize=auto;html=1;exitX=0.5;exitY=1;exitDx=0;exitDy=0;entryX=0.5;entryY=0;entryDx=0;entryDy=0;" parent="1" source="ZejblPBedZObE1Ul5SFk-15" target="ZejblPBedZObE1Ul5SFk-17" edge="1">
          <mxGeometry relative="1" as="geometry" />
        </mxCell>
        <mxCell id="ZejblPBedZObE1Ul5SFk-15" value="NewArr" style="shape=process;whiteSpace=wrap;html=1;backgroundOutline=1;" parent="1" vertex="1">
          <mxGeometry x="78" y="250" width="120" height="40" as="geometry" />
        </mxCell>
        <mxCell id="ZejblPBedZObE1Ul5SFk-20" style="edgeStyle=orthogonalEdgeStyle;rounded=0;orthogonalLoop=1;jettySize=auto;html=1;exitX=0.5;exitY=1;exitDx=0;exitDy=0;entryX=0.5;entryY=0;entryDx=0;entryDy=0;" parent="1" source="ZejblPBedZObE1Ul5SFk-17" target="ZejblPBedZObE1Ul5SFk-18" edge="1">
          <mxGeometry relative="1" as="geometry" />
        </mxCell>
        <mxCell id="ZejblPBedZObE1Ul5SFk-17" value="arrNew" style="shape=parallelogram;perimeter=parallelogramPerimeter;whiteSpace=wrap;html=1;fixedSize=1;" parent="1" vertex="1">
          <mxGeometry x="78" y="320" width="120" height="30" as="geometry" />
        </mxCell>
        <mxCell id="ZejblPBedZObE1Ul5SFk-18" value="конец" style="rounded=1;whiteSpace=wrap;html=1;" parent="1" vertex="1">
          <mxGeometry x="78" y="380" width="120" height="30" as="geometry" />
        </mxCell>
        <mxCell id="ZejblPBedZObE1Ul5SFk-21" value="Count_3" style="shape=process;whiteSpace=wrap;html=1;backgroundOutline=1;" parent="1" vertex="1">
          <mxGeometry x="313" y="10" width="120" height="40" as="geometry" />
        </mxCell>
        <mxCell id="ZejblPBedZObE1Ul5SFk-22" value="NewArr" style="shape=process;whiteSpace=wrap;html=1;backgroundOutline=1;" parent="1" vertex="1">
          <mxGeometry x="610" y="10" width="120" height="40" as="geometry" />
        </mxCell>
        <mxCell id="ZejblPBedZObE1Ul5SFk-38" style="edgeStyle=orthogonalEdgeStyle;rounded=0;orthogonalLoop=1;jettySize=auto;html=1;exitX=0.5;exitY=1;exitDx=0;exitDy=0;entryX=0.5;entryY=0;entryDx=0;entryDy=0;" parent="1" source="ZejblPBedZObE1Ul5SFk-26" target="ZejblPBedZObE1Ul5SFk-13" edge="1">
          <mxGeometry relative="1" as="geometry" />
        </mxCell>
        <mxCell id="ZejblPBedZObE1Ul5SFk-26" value="i_New = 0" style="rounded=0;whiteSpace=wrap;html=1;" parent="1" vertex="1">
          <mxGeometry x="610" y="80" width="120" height="35" as="geometry" />
        </mxCell>
        <mxCell id="ZejblPBedZObE1Ul5SFk-40" style="edgeStyle=orthogonalEdgeStyle;rounded=0;orthogonalLoop=1;jettySize=auto;html=1;exitX=0.5;exitY=1;exitDx=0;exitDy=0;entryX=0.5;entryY=0;entryDx=0;entryDy=0;" parent="1" source="ZejblPBedZObE1Ul5SFk-28" target="ZejblPBedZObE1Ul5SFk-33" edge="1">
          <mxGeometry relative="1" as="geometry" />
        </mxCell>
        <mxCell id="ZejblPBedZObE1Ul5SFk-43" value="Yes" style="edgeLabel;html=1;align=center;verticalAlign=middle;resizable=0;points=[];" parent="ZejblPBedZObE1Ul5SFk-40" vertex="1" connectable="0">
          <mxGeometry x="-0.2049" y="1" relative="1" as="geometry">
            <mxPoint as="offset" />
          </mxGeometry>
        </mxCell>
        <mxCell id="ZejblPBedZObE1Ul5SFk-42" style="edgeStyle=orthogonalEdgeStyle;rounded=0;orthogonalLoop=1;jettySize=auto;html=1;exitX=1;exitY=0.5;exitDx=0;exitDy=0;" parent="1" source="ZejblPBedZObE1Ul5SFk-28" edge="1">
          <mxGeometry relative="1" as="geometry">
            <mxPoint x="670" y="350" as="targetPoint" />
            <Array as="points">
              <mxPoint x="775" y="225" />
              <mxPoint x="775" y="350" />
            </Array>
          </mxGeometry>
        </mxCell>
        <mxCell id="ZejblPBedZObE1Ul5SFk-44" value="No" style="edgeLabel;html=1;align=center;verticalAlign=middle;resizable=0;points=[];" parent="ZejblPBedZObE1Ul5SFk-42" vertex="1" connectable="0">
          <mxGeometry x="-0.5688" y="-1" relative="1" as="geometry">
            <mxPoint y="11" as="offset" />
          </mxGeometry>
        </mxCell>
        <mxCell id="ZejblPBedZObE1Ul5SFk-28" value="arr[i].Length &amp;lt; 4" style="rhombus;whiteSpace=wrap;html=1;" parent="1" vertex="1">
          <mxGeometry x="585" y="200" width="170" height="50" as="geometry" />
        </mxCell>
        <mxCell id="ZejblPBedZObE1Ul5SFk-30" style="edgeStyle=orthogonalEdgeStyle;rounded=0;orthogonalLoop=1;jettySize=auto;html=1;exitX=0.5;exitY=1;exitDx=0;exitDy=0;entryX=0.5;entryY=0;entryDx=0;entryDy=0;" parent="1" source="ZejblPBedZObE1Ul5SFk-29" target="QJgAuT76hYWnFfY8ISlt-3" edge="1">
          <mxGeometry relative="1" as="geometry" />
        </mxCell>
        <mxCell id="ZejblPBedZObE1Ul5SFk-29" value="k = arr[i].Length&amp;nbsp;" style="rounded=0;whiteSpace=wrap;html=1;" parent="1" vertex="1">
          <mxGeometry x="318" y="140" width="120" height="30" as="geometry" />
        </mxCell>
        <mxCell id="ZejblPBedZObE1Ul5SFk-45" style="edgeStyle=orthogonalEdgeStyle;rounded=0;orthogonalLoop=1;jettySize=auto;html=1;exitX=0.5;exitY=1;exitDx=0;exitDy=0;entryX=0;entryY=0.5;entryDx=0;entryDy=0;" parent="1" source="ZejblPBedZObE1Ul5SFk-33" target="ZejblPBedZObE1Ul5SFk-13" edge="1">
          <mxGeometry relative="1" as="geometry">
            <Array as="points">
              <mxPoint x="670" y="360" />
              <mxPoint x="552" y="360" />
              <mxPoint x="552" y="155" />
            </Array>
          </mxGeometry>
        </mxCell>
        <mxCell id="ZejblPBedZObE1Ul5SFk-33" value="arrayNew[i_New] = arr[i]&lt;br&gt;i_New = i_New + 1" style="rounded=0;whiteSpace=wrap;html=1;" parent="1" vertex="1">
          <mxGeometry x="582.5" y="290" width="175" height="40" as="geometry" />
        </mxCell>
        <mxCell id="ZejblPBedZObE1Ul5SFk-36" style="edgeStyle=orthogonalEdgeStyle;rounded=0;orthogonalLoop=1;jettySize=auto;html=1;exitX=0.5;exitY=1;exitDx=0;exitDy=0;" parent="1" source="ZejblPBedZObE1Ul5SFk-35" edge="1">
          <mxGeometry relative="1" as="geometry">
            <mxPoint x="373" y="470" as="targetPoint" />
          </mxGeometry>
        </mxCell>
        <mxCell id="ZejblPBedZObE1Ul5SFk-35" value="count" style="shape=parallelogram;perimeter=parallelogramPerimeter;whiteSpace=wrap;html=1;fixedSize=1;" parent="1" vertex="1">
          <mxGeometry x="313" y="420" width="120" height="30" as="geometry" />
        </mxCell>
        <mxCell id="ZejblPBedZObE1Ul5SFk-47" style="edgeStyle=orthogonalEdgeStyle;rounded=0;orthogonalLoop=1;jettySize=auto;html=1;exitX=0.5;exitY=1;exitDx=0;exitDy=0;" parent="1" source="ZejblPBedZObE1Ul5SFk-37" edge="1">
          <mxGeometry relative="1" as="geometry">
            <mxPoint x="670" y="450" as="targetPoint" />
          </mxGeometry>
        </mxCell>
        <mxCell id="ZejblPBedZObE1Ul5SFk-37" value="arrayNew" style="shape=parallelogram;perimeter=parallelogramPerimeter;whiteSpace=wrap;html=1;fixedSize=1;" parent="1" vertex="1">
          <mxGeometry x="610" y="400" width="120" height="30" as="geometry" />
        </mxCell>
      </root>
    </mxGraphModel>
  </diagram>
</mxfile>
